<svg id="Groupe_4" data-name="Groupe 4" xmlns="http://www.w3.org/2000/svg" width="128.072" height="50" viewBox="0 0 128.072 50">
  <path id="Tracé_787" data-name="Tracé 787" d="M70.448,47.114c.32,0,.5-.213.5-.853V25.722c0-.64-.177-.853-.5-.853s-.5.213-.5.853V46.26C69.951,46.9,70.128,47.114,70.448,47.114Z" transform="translate(-30.915 -10.991)" fill="#fff"/>
  <path id="Tracé_788" data-name="Tracé 788" d="M103.357,30.282V26.23c0-.639-.177-.852-.639-.852h-.355v5.757h.355C103.18,31.135,103.357,30.921,103.357,30.282Z" transform="translate(-45.239 -11.216)" fill="#fff"/>
  <path id="Tracé_789" data-name="Tracé 789" d="M121.35,25.7h-.284l-.426,10.661h1.137Z" transform="translate(-53.316 -11.356)" fill="#fff"/>
  <path id="Tracé_790" data-name="Tracé 790" d="M10.21,8.6H123.294l4.065-4.064H6.146Z" transform="translate(-2.716 -2.007)" fill="#fff"/>
  <path id="Tracé_791" data-name="Tracé 791" d="M14.094,48.364H126.436V14.094H14.094Zm101.318-11.45h3.554V41.5c0,.641.178.853.5.853s.5-.213.5-.853V39.971c0-6.183-4.549-10.306-4.549-17.234V22.1c0-3.8,1.351-5.366,4.123-5.366,2.878,0,3.98,1.564,3.98,5.366v3.447h-3.554V20.96c0-.64-.177-.853-.5-.853s-.5.213-.5.853v1.528c0,6.184,4.549,10.3,4.549,17.233v.641c0,3.8-1.351,5.365-4.122,5.365-2.878,0-3.981-1.564-3.981-5.365Zm-7.107-19.9h6.254v3.376h-2.7v7.888h2.559v3.376h-2.559V42.068h2.771v3.375h-6.325Zm-14.5,0h5.685l1.03,13.574h.285l1.031-13.574h5.471V45.443h-3.553l.391-22.28h-.285l-1.847,22.28H99.1l-1.848-22.28H96.97l.391,22.28H93.807Zm-14.5,0h5.686l1.03,13.574h.285l1.03-13.574h5.472V45.443H89.258l.391-22.28h-.285l-1.847,22.28H84.6l-1.848-22.28h-.284l.391,22.28H79.308Zm-8.03,0h5.757l1.7,28.428H75.293l-.462-11.015H73.41l-.462,11.015H69.572Zm-11.479,0h3.98c3.021,0,4.122,1.564,4.122,5.011v2.132a6.437,6.437,0,0,1-.818,3.517l2.061,17.767H65.307l-1.67-16.274h-.284V45.443H59.8ZM50.738,22.1c0-3.8,1.351-5.366,4.122-5.366,2.878,0,3.98,1.564,3.98,5.366V28.92H55.286V20.96c0-.64-.177-.853-.5-.853s-.5.213-.5.853V41.5c0,.641.177.853.5.853s.5-.213.5-.853V31.052H58.84V45.443H56.388V42.316h-.249c-.142,2.522-1,3.41-2.594,3.41-1.813,0-2.808-1.03-2.808-4.122Zm-9.027,0c0-3.8,1.351-5.366,4.122-5.366,2.879,0,3.98,1.564,3.98,5.366V40.362c0,3.8-1.35,5.365-4.122,5.365-2.879,0-3.981-1.564-3.981-5.365Zm-6.894-5.082h3.554V42.068h2.771v3.375H34.817ZM26.929,42.068H28.67V20.391H26.929V17.015h7.036v3.376H32.224V42.068h1.741v3.375H26.929ZM17.015,17.015h3.554v4.264l-.426,7h.283l2.061-11.264h3.66L23.766,27.427,26.5,45.443H22.771l-1.35-10.091-.178-2.738h-.284l-.391,1.564V45.443H17.015Z" transform="translate(-6.229 -6.229)" fill="#fff"/>
  <path id="Tracé_792" data-name="Tracé 792" d="M4.541,49.285l4.064-4.064V10.21L4.541,6.145Z" transform="translate(-2.007 -2.716)" fill="#fff"/>
  <path id="Tracé_793" data-name="Tracé 793" d="M125.213,0H2.858A2.861,2.861,0,0,0,0,2.858V47.142A2.861,2.861,0,0,0,2.858,50H125.213a2.862,2.862,0,0,0,2.859-2.858V2.858A2.862,2.862,0,0,0,125.213,0Zm1.592,47.142a1.594,1.594,0,0,1-1.592,1.592H2.858a1.593,1.593,0,0,1-1.591-1.592V2.858A1.592,1.592,0,0,1,2.858,1.267H125.213a1.593,1.593,0,0,1,1.592,1.591Z" transform="translate(0)" fill="#fff"/>
  <path id="Tracé_794" data-name="Tracé 794" d="M22.882,36.492l.391-1.564h.284l.178,2.737,1.35,10.091h3.732L26.079,29.74,28.46,19.328H24.8L22.739,30.592h-.284l.427-7V19.328H19.328V47.756h3.554Z" transform="translate(-8.542 -8.542)" fill="#171313"/>
  <path id="Tracé_795" data-name="Tracé 795" d="M44.129,44.381H42.388V22.7h1.741V19.328H37.093V22.7h1.742V44.381H37.093v3.375h7.036Z" transform="translate(-16.393 -8.542)" fill="#171313"/>
  <path id="Tracé_796" data-name="Tracé 796" d="M57.555,44.381H54.784V19.328H51.229V47.756h6.325Z" transform="translate(-22.641 -8.542)" fill="#171313"/>
  <path id="Tracé_797" data-name="Tracé 797" d="M67.563,47.815c2.771,0,4.122-1.564,4.122-5.365V24.185c0-3.8-1.1-5.366-3.98-5.366-2.771,0-4.122,1.564-4.122,5.366V42.45C63.582,46.251,64.684,47.815,67.563,47.815Zm-.426-24.767c0-.64.177-.853.5-.853s.5.213.5.853V43.587c0,.641-.177.853-.5.853s-.5-.213-.5-.853Z" transform="translate(-28.1 -8.317)" fill="#171313"/>
  <path id="Tracé_798" data-name="Tracé 798" d="M82.565,47.815c1.6,0,2.452-.888,2.594-3.41h.249v3.126h2.452V33.14H84.306V43.587c0,.641-.177.853-.5.853s-.5-.213-.5-.853V23.048c0-.64.177-.853.5-.853s.5.213.5.853v7.96h3.554V24.185c0-3.8-1.1-5.366-3.98-5.366-2.771,0-4.122,1.564-4.122,5.366V43.693C79.757,46.785,80.752,47.815,82.565,47.815Z" transform="translate(-35.248 -8.317)" fill="#171313"/>
  <path id="Tracé_799" data-name="Tracé 799" d="M99.549,31.482h.284l1.67,16.274h3.838L103.28,29.989a6.437,6.437,0,0,0,.818-3.517V24.339c0-3.448-1.1-5.011-4.122-5.011H96V47.756h3.554Zm0-8.778H99.9c.462,0,.639.213.639.852v4.051c0,.639-.177.854-.639.854h-.355Z" transform="translate(-42.425 -8.542)" fill="#171313"/>
  <path id="Tracé_800" data-name="Tracé 800" d="M117.345,36.74h1.422l.462,11.015h3.447l-1.7-28.428h-5.757l-1.706,28.428h3.376Zm.569-13.859h.284l.427,10.661h-1.137Z" transform="translate(-50.164 -8.542)" fill="#171313"/>
  <path id="Tracé_801" data-name="Tracé 801" d="M134.116,25.476h.284l1.848,22.28h2.914l1.847-22.28h.285l-.391,22.28h3.553V19.328h-5.472L137.954,32.9h-.285l-1.031-13.574h-5.685V47.756h3.554Z" transform="translate(-57.874 -8.542)" fill="#171313"/>
  <path id="Tracé_802" data-name="Tracé 802" d="M160.1,25.476h.284l1.848,22.28h2.914l1.847-22.28h.285l-.391,22.28h3.553V19.328h-5.472L163.936,32.9h-.285L162.62,19.328h-5.685V47.756h3.554Z" transform="translate(-69.357 -8.542)" fill="#171313"/>
  <path id="Tracé_803" data-name="Tracé 803" d="M189.24,44.381h-2.771V33.969h2.558V30.592h-2.558V22.7h2.7V19.328h-6.254V47.756h6.325Z" transform="translate(-80.838 -8.542)" fill="#171313"/>
  <path id="Tracé_804" data-name="Tracé 804" d="M199.631,47.815c2.771,0,4.122-1.564,4.122-5.365v-.641c0-6.929-4.549-11.049-4.549-17.233V23.048c0-.64.178-.853.5-.853s.5.213.5.853v4.584h3.554V24.185c0-3.8-1.1-5.366-3.98-5.366-2.772,0-4.123,1.564-4.123,5.366v.64c0,6.929,4.549,11.051,4.549,17.234v1.527c0,.641-.177.853-.5.853s-.5-.213-.5-.853V39H195.65V42.45C195.65,46.251,196.752,47.815,199.631,47.815Z" transform="translate(-86.467 -8.317)" fill="#171313"/>
  <path id="Tracé_805" data-name="Tracé 805" d="M126.217,2.27H3.862A1.592,1.592,0,0,0,2.271,3.861V48.145a1.593,1.593,0,0,0,1.591,1.592H126.217a1.594,1.594,0,0,0,1.592-1.592V3.861A1.593,1.593,0,0,0,126.217,2.27ZM7.6,43.509,3.538,47.572V4.432L7.6,8.5Zm113.609-.371H8.869V8.868H121.211ZM121.581,7.6H8.5L4.433,3.537H125.646Z" transform="translate(-1.004 -1.003)" fill="#171313"/>
</svg>
