<?xml version="1.0" encoding="utf-8"?>
<!-- Generator: Adobe Illustrator 28.0.0, SVG Export Plug-In . SVG Version: 6.00 Build 0)  -->
<svg version="1.1" id="Calque_1" xmlns="http://www.w3.org/2000/svg" xmlns:xlink="http://www.w3.org/1999/xlink" x="0px" y="0px"
	 viewBox="0 0 50.75 50.75" style="enable-background:new 0 0 50.75 50.75;" xml:space="preserve">
<style type="text/css">
	.st0{fill:#FF671D;}
	.st1{fill:#2D2926;}
	.st2{fill:#FF671D;stroke:#2D2926;stroke-width:0.75;stroke-linecap:round;stroke-linejoin:round;stroke-miterlimit:10;}
	.st3{fill:none;stroke:#2D2926;stroke-linecap:round;stroke-linejoin:round;stroke-miterlimit:10;}
	.st4{fill:#BEDE18;}
	.st5{fill:#BEDE18;stroke:#2D2926;stroke-width:0.75;stroke-linecap:round;stroke-linejoin:round;stroke-miterlimit:10;}
	.st6{fill:#F5D93F;stroke:#2D2926;stroke-linecap:round;stroke-linejoin:round;stroke-miterlimit:10;}
	.st7{fill:#F5D93F;stroke:#2D2926;stroke-width:0.5;stroke-linecap:round;stroke-linejoin:round;stroke-miterlimit:10;}
	.st8{fill:#19D3C5;}
	.st9{fill:#19D3C5;stroke:#2D2926;stroke-width:0.75;stroke-linecap:round;stroke-linejoin:round;stroke-miterlimit:10;}
	.st10{fill:#FF5A67;}
	.st11{fill:#FF5A67;stroke:#2D2926;stroke-width:0.75;stroke-linecap:round;stroke-linejoin:round;stroke-miterlimit:10;}
	.st12{fill:#F6A7D7;}
	.st13{fill:#F6A7D7;stroke:#2D2926;stroke-width:0.75;stroke-linecap:round;stroke-linejoin:round;stroke-miterlimit:10;}
	
		.st14{clip-path:url(#SVGID_00000169555255763024998960000017571097949215703426_);fill:#F6A7D7;stroke:#2D2926;stroke-width:0.75;stroke-linecap:round;stroke-linejoin:round;stroke-miterlimit:10;}
	.st15{fill:none;stroke:#2D2926;stroke-width:0.75;stroke-linecap:round;stroke-linejoin:round;stroke-miterlimit:10;}
</style>
<g>
	<g>
		<path class="st0" d="M25.38,24.6c-5.65,0-11.66-1.4-11.66-4.01c0-6.43,5.23-11.66,11.66-11.66s11.66,5.23,11.66,11.66
			C37.03,23.2,31.03,24.6,25.38,24.6z"/>
		<path class="st1" d="M25.37,9.44c6.16,0,11.16,5,11.16,11.16c0,1.94-5,3.51-11.16,3.51c-6.16,0-11.16-1.57-11.16-3.51
			C14.22,14.43,19.21,9.44,25.37,9.44 M25.37,8.44c-6.7,0-12.16,5.45-12.16,12.16c0,3.1,6.3,4.51,12.16,4.51
			c5.86,0,12.16-1.41,12.16-4.51C37.53,13.89,32.08,8.44,25.37,8.44L25.37,8.44z"/>
	</g>
	<g>
		<path class="st0" d="M25.38,41.81c-6.43,0-11.66-5.23-11.66-11.66c0-2.6,6.01-4.01,11.66-4.01c5.65,0,11.66,1.4,11.66,4.01
			C37.03,36.58,31.8,41.81,25.38,41.81z"/>
		<path class="st1" d="M25.37,26.65c6.16,0,11.16,1.57,11.16,3.51c0,6.16-5,11.16-11.16,11.16s-11.16-5-11.16-11.16
			C14.22,28.22,19.21,26.65,25.37,26.65 M25.37,25.65c-5.86,0-12.16,1.41-12.16,4.51c0,6.7,5.45,12.16,12.16,12.16
			c6.7,0,12.16-5.45,12.16-12.16C37.53,27.06,31.23,25.65,25.37,25.65L25.37,25.65z"/>
	</g>
	<path class="st2" d="M36.53,30.16c0,6.16-5,11.16-11.16,11.16s-11.16-5-11.16-11.16"/>
	<ellipse class="st2" cx="25.38" cy="30.16" rx="11.16" ry="3.51"/>
	<path class="st2" d="M14.22,20.59c0,1.94,5,3.51,11.16,3.51s11.16-1.57,11.16-3.51c0-6.16-5-11.16-11.16-11.16
		S14.22,14.43,14.22,20.59z"/>
	<line class="st3" x1="19.44" y1="15" x2="19.44" y2="15"/>
	<line class="st3" x1="21.85" y1="15.81" x2="21.85" y2="15.81"/>
	<line class="st3" x1="21.35" y1="13.32" x2="21.35" y2="13.32"/>
	<line class="st3" x1="31" y1="36.45" x2="31" y2="36.45"/>
	<line class="st3" x1="28.59" y1="35.64" x2="28.59" y2="35.64"/>
	<line class="st3" x1="29.09" y1="38.13" x2="29.09" y2="38.13"/>
	<line class="st2" x1="14.22" y1="30.16" x2="36.53" y2="30.16"/>
	<line class="st2" x1="31.39" y1="33.11" x2="19.36" y2="27.2"/>
	<line class="st2" x1="31.39" y1="27.2" x2="19.36" y2="33.11"/>
</g>
</svg>
