<?xml version="1.0" encoding="utf-8"?>
<!-- Generator: Adobe Illustrator 28.0.0, SVG Export Plug-In . SVG Version: 6.00 Build 0)  -->
<svg version="1.1" id="Calque_1" xmlns="http://www.w3.org/2000/svg" xmlns:xlink="http://www.w3.org/1999/xlink" x="0px" y="0px"
	 viewBox="0 0 50.75 50.75" style="enable-background:new 0 0 50.75 50.75;" xml:space="preserve">
<style type="text/css">
	.st0{fill:#FF671D;}
	.st1{fill:#2D2926;}
	.st2{fill:#FF671D;stroke:#2D2926;stroke-width:0.75;stroke-linecap:round;stroke-linejoin:round;stroke-miterlimit:10;}
	.st3{fill:none;stroke:#2D2926;stroke-linecap:round;stroke-linejoin:round;stroke-miterlimit:10;}
	.st4{fill:#BEDE18;}
	.st5{fill:#BEDE18;stroke:#2D2926;stroke-width:0.75;stroke-linecap:round;stroke-linejoin:round;stroke-miterlimit:10;}
	.st6{fill:#F5D93F;stroke:#2D2926;stroke-linecap:round;stroke-linejoin:round;stroke-miterlimit:10;}
	.st7{fill:#F5D93F;stroke:#2D2926;stroke-width:0.5;stroke-linecap:round;stroke-linejoin:round;stroke-miterlimit:10;}
	.st8{fill:#19D3C5;}
	.st9{fill:#19D3C5;stroke:#2D2926;stroke-width:0.75;stroke-linecap:round;stroke-linejoin:round;stroke-miterlimit:10;}
	.st10{fill:#FF5A67;}
	.st11{fill:#FF5A67;stroke:#2D2926;stroke-width:0.75;stroke-linecap:round;stroke-linejoin:round;stroke-miterlimit:10;}
	.st12{fill:#F6A7D7;}
	.st13{fill:#F6A7D7;stroke:#2D2926;stroke-width:0.75;stroke-linecap:round;stroke-linejoin:round;stroke-miterlimit:10;}
	
		.st14{clip-path:url(#SVGID_00000170236789392561165280000006323934048548948886_);fill:#F6A7D7;stroke:#2D2926;stroke-width:0.75;stroke-linecap:round;stroke-linejoin:round;stroke-miterlimit:10;}
	.st15{fill:none;stroke:#2D2926;stroke-width:0.75;stroke-linecap:round;stroke-linejoin:round;stroke-miterlimit:10;}
</style>
<g>
	<path class="st7" d="M37.5,25.37c0-6.97-4.03-12.8-9.42-14.29c-0.59-1.04-1.58-1.72-2.71-1.72s-2.11,0.68-2.71,1.72
		c-5.39,1.49-9.42,7.31-9.42,14.29c0,6.97,4.03,12.8,9.42,14.29c0.59,1.04,1.58,1.72,2.71,1.72c1.12,0,2.11-0.68,2.71-1.72
		C33.47,38.17,37.5,32.35,37.5,25.37z"/>
	<line class="st3" x1="19.3" y1="16.43" x2="19.3" y2="16.43"/>
	<line class="st3" x1="21.93" y1="17.31" x2="21.93" y2="17.31"/>
	<line class="st3" x1="21.38" y1="14.59" x2="21.38" y2="14.59"/>
	<line class="st3" x1="31.45" y1="34.11" x2="31.45" y2="34.11"/>
	<line class="st3" x1="28.82" y1="33.23" x2="28.82" y2="33.23"/>
	<line class="st3" x1="29.37" y1="35.95" x2="29.37" y2="35.95"/>
	<g>
		<path class="st1" d="M25.37,9.37c1.12,0,2.11,0.68,2.71,1.72c5.39,1.49,9.42,7.31,9.42,14.29c0,6.97-4.03,12.8-9.42,14.29
			c-0.59,1.04-1.58,1.72-2.71,1.72c-1.12,0-2.11-0.68-2.71-1.72c-5.39-1.49-9.42-7.31-9.42-14.29c0-6.97,4.03-12.8,9.42-14.29
			C23.26,10.05,24.25,9.37,25.37,9.37 M25.37,8.37c-1.32,0-2.54,0.69-3.35,1.87c-5.78,1.81-9.78,7.97-9.78,15.14
			c0,7.17,4,13.33,9.78,15.14c0.81,1.18,2.04,1.87,3.35,1.87c1.31,0,2.54-0.69,3.35-1.87c5.78-1.81,9.78-7.97,9.78-15.14
			c0-7.17-4-13.33-9.78-15.14C27.92,9.06,26.69,8.37,25.37,8.37L25.37,8.37z"/>
	</g>
</g>
</svg>
