<?xml version="1.0" encoding="utf-8"?>
<!-- Generator: Adobe Illustrator 28.0.0, SVG Export Plug-In . SVG Version: 6.00 Build 0)  -->
<svg version="1.1" id="Calque_1" xmlns="http://www.w3.org/2000/svg" xmlns:xlink="http://www.w3.org/1999/xlink" x="0px" y="0px"
	 viewBox="0 0 50.75 50.75" style="enable-background:new 0 0 50.75 50.75;" xml:space="preserve">
<style type="text/css">
	.st0{fill:#FF671D;}
	.st1{fill:#2D2926;}
	.st2{fill:#FF671D;stroke:#2D2926;stroke-width:0.75;stroke-linecap:round;stroke-linejoin:round;stroke-miterlimit:10;}
	.st3{fill:none;stroke:#2D2926;stroke-linecap:round;stroke-linejoin:round;stroke-miterlimit:10;}
	.st4{fill:#BEDE18;}
	.st5{fill:#BEDE18;stroke:#2D2926;stroke-width:0.75;stroke-linecap:round;stroke-linejoin:round;stroke-miterlimit:10;}
	.st6{fill:#F5D93F;stroke:#2D2926;stroke-linecap:round;stroke-linejoin:round;stroke-miterlimit:10;}
	.st7{fill:#F5D93F;stroke:#2D2926;stroke-width:0.5;stroke-linecap:round;stroke-linejoin:round;stroke-miterlimit:10;}
	.st8{fill:#19D3C5;}
	.st9{fill:#19D3C5;stroke:#2D2926;stroke-width:0.75;stroke-linecap:round;stroke-linejoin:round;stroke-miterlimit:10;}
	.st10{fill:#FF5A67;}
	.st11{fill:#FF5A67;stroke:#2D2926;stroke-width:0.75;stroke-linecap:round;stroke-linejoin:round;stroke-miterlimit:10;}
	.st12{fill:#F6A7D7;}
	.st13{fill:#F6A7D7;stroke:#2D2926;stroke-width:0.75;stroke-linecap:round;stroke-linejoin:round;stroke-miterlimit:10;}
	
		.st14{clip-path:url(#SVGID_00000132054703334287601960000004255615594698333361_);fill:#F6A7D7;stroke:#2D2926;stroke-width:0.75;stroke-linecap:round;stroke-linejoin:round;stroke-miterlimit:10;}
	.st15{fill:none;stroke:#2D2926;stroke-width:0.75;stroke-linecap:round;stroke-linejoin:round;stroke-miterlimit:10;}
</style>
<g>
	<g>
		<path class="st8" d="M24.55,41.88c-1.05,0-1.9-0.85-1.9-1.9V36c-2.88-0.27-5.49-0.94-7.57-1.95c-0.14-0.07-0.24-0.19-0.27-0.34
			c-0.03-0.15,0-0.3,0.1-0.42l4.78-5.89c-1.16-0.29-2.21-0.66-3.13-1.11c-0.14-0.07-0.24-0.19-0.27-0.34c-0.03-0.15,0-0.3,0.1-0.42
			l4.92-6.21c-1.06-0.24-2-0.55-2.8-0.94c-0.14-0.07-0.23-0.19-0.27-0.34s0-0.3,0.09-0.42l6.67-8.54c0.09-0.12,0.24-0.19,0.39-0.19
			s0.3,0.07,0.39,0.19l6.67,8.54c0.09,0.12,0.13,0.27,0.09,0.42s-0.13,0.27-0.27,0.34c-0.8,0.39-1.74,0.71-2.8,0.94l4.92,6.21
			c0.09,0.12,0.13,0.27,0.1,0.42c-0.03,0.15-0.13,0.27-0.27,0.34c-0.92,0.45-1.97,0.82-3.13,1.11l4.78,5.89
			c0.1,0.12,0.13,0.27,0.1,0.42c-0.03,0.15-0.13,0.27-0.27,0.34c-2.08,1.02-4.69,1.69-7.57,1.95v3.99c0,1.05-0.85,1.9-1.9,1.9H24.55
			z"/>
		<path class="st1" d="M25.37,9.37l6.67,8.54c-1.04,0.51-2.26,0.85-3.56,1.07h0.09l5.41,6.84c-1.13,0.55-2.42,0.96-3.8,1.25
			c1.54,1.9,5.28,6.52,5.28,6.52c-2.22,1.08-4.98,1.72-7.85,1.94v4.45c0,0.77-0.63,1.4-1.4,1.4h-1.66c-0.77,0-1.4-0.63-1.4-1.4
			v-4.45c-2.87-0.22-5.64-0.86-7.85-1.94c0,0,3.74-4.62,5.28-6.52c-1.38-0.29-2.68-0.7-3.8-1.25l5.41-6.84h0.09
			c-1.3-0.22-2.52-0.57-3.56-1.07L25.37,9.37 M25.37,8.37c-0.31,0-0.6,0.14-0.79,0.38l-6.67,8.54c-0.19,0.24-0.25,0.55-0.19,0.84
			c0.07,0.29,0.26,0.54,0.54,0.67c0.64,0.31,1.36,0.58,2.15,0.79l-4.43,5.6c-0.19,0.24-0.26,0.55-0.19,0.84
			c0.07,0.3,0.26,0.54,0.54,0.68c0.75,0.37,1.58,0.68,2.48,0.94l-4.29,5.3c-0.19,0.24-0.27,0.55-0.2,0.85s0.26,0.55,0.54,0.68
			c2.02,0.99,4.53,1.66,7.29,1.96v3.53c0,1.32,1.08,2.4,2.4,2.4h1.66c1.32,0,2.4-1.08,2.4-2.4v-3.53c2.76-0.3,5.27-0.97,7.29-1.96
			c0.27-0.13,0.47-0.38,0.54-0.68c0.07-0.3-0.01-0.61-0.2-0.85l-4.29-5.3c0.9-0.26,1.73-0.58,2.48-0.94
			c0.27-0.13,0.47-0.38,0.54-0.68s0-0.61-0.19-0.84l-4.43-5.6c0.79-0.22,1.51-0.48,2.15-0.79c0.27-0.13,0.47-0.38,0.54-0.67
			c0.07-0.29,0-0.6-0.19-0.84l-6.67-8.54C25.97,8.51,25.68,8.37,25.37,8.37L25.37,8.37z"/>
	</g>
	<path class="st9" d="M27.6,35.63h-4.46v4.35c0,0.77,0.63,1.4,1.4,1.4h1.66c0.77,0,1.4-0.63,1.4-1.4V35.63z"/>
	<path class="st9" d="M30.18,27.08c1.54,1.9,5.28,6.52,5.28,6.52c-2.78,1.36-6.43,2.04-10.08,2.04s-7.3-0.68-10.08-2.04
		c0,0,3.74-4.62,5.28-6.52H30.18z"/>
	<path class="st9" d="M22.18,18.98l-5.41,6.84c1.13,0.55,2.42,0.96,3.8,1.25c1.53,0.32,3.16,0.49,4.8,0.49
		c1.64,0,3.27-0.16,4.8-0.49c1.38-0.29,2.68-0.7,3.8-1.25l-5.41-6.84H22.18z"/>
	<path class="st9" d="M25.37,19.26c2.41,0,4.82-0.45,6.67-1.35l-6.67-8.54l-6.67,8.54C20.55,18.81,22.96,19.26,25.37,19.26"/>
</g>
</svg>
