<?xml version="1.0" encoding="utf-8"?>
<!-- Generator: Adobe Illustrator 28.0.0, SVG Export Plug-In . SVG Version: 6.00 Build 0)  -->
<svg version="1.1" id="Calque_1" xmlns="http://www.w3.org/2000/svg" xmlns:xlink="http://www.w3.org/1999/xlink" x="0px" y="0px"
	 viewBox="0 0 50.75 50.75" style="enable-background:new 0 0 50.75 50.75;" xml:space="preserve">
<style type="text/css">
	.st0{fill:#FF671D;}
	.st1{fill:#2D2926;}
	.st2{fill:#FF671D;stroke:#2D2926;stroke-width:0.75;stroke-linecap:round;stroke-linejoin:round;stroke-miterlimit:10;}
	.st3{fill:none;stroke:#2D2926;stroke-linecap:round;stroke-linejoin:round;stroke-miterlimit:10;}
	.st4{fill:#BEDE18;}
	.st5{fill:#BEDE18;stroke:#2D2926;stroke-width:0.75;stroke-linecap:round;stroke-linejoin:round;stroke-miterlimit:10;}
	.st6{fill:#F5D93F;stroke:#2D2926;stroke-linecap:round;stroke-linejoin:round;stroke-miterlimit:10;}
	.st7{fill:#F5D93F;stroke:#2D2926;stroke-width:0.5;stroke-linecap:round;stroke-linejoin:round;stroke-miterlimit:10;}
	.st8{fill:#19D3C5;}
	.st9{fill:#19D3C5;stroke:#2D2926;stroke-width:0.75;stroke-linecap:round;stroke-linejoin:round;stroke-miterlimit:10;}
	.st10{fill:#FF5A67;}
	.st11{fill:#FF5A67;stroke:#2D2926;stroke-width:0.75;stroke-linecap:round;stroke-linejoin:round;stroke-miterlimit:10;}
	.st12{fill:#F6A7D7;}
	.st13{fill:#F6A7D7;stroke:#2D2926;stroke-width:0.75;stroke-linecap:round;stroke-linejoin:round;stroke-miterlimit:10;}
	
		.st14{clip-path:url(#SVGID_00000171000315203788838920000001384035072935471518_);fill:#F6A7D7;stroke:#2D2926;stroke-width:0.75;stroke-linecap:round;stroke-linejoin:round;stroke-miterlimit:10;}
	.st15{fill:none;stroke:#2D2926;stroke-width:0.75;stroke-linecap:round;stroke-linejoin:round;stroke-miterlimit:10;}
</style>
<g>
	<g>
		<path class="st10" d="M25.38,40.81c-6.24,0-11.13-2.55-11.13-5.81V15.75c0-3.26,4.89-5.81,11.13-5.81c1.53,0,3.02,0.16,4.44,0.48
			c0.14,0.03,0.27,0.13,0.33,0.26c0.07,0.13,0.08,0.29,0.02,0.42l-0.62,1.48l2.63-1.26c0.07-0.03,0.14-0.05,0.22-0.05
			c0.07,0,0.14,0.01,0.2,0.04c2.48,1.09,3.9,2.71,3.9,4.44V35C36.5,38.26,31.61,40.81,25.38,40.81z"/>
		<path class="st1" d="M25.38,10.44c1.54,0,3,0.17,4.33,0.46l-1.12,2.69l3.81-1.82c2.21,0.97,3.6,2.39,3.6,3.98v0v5.31v6.97V35
			c0,2.93-4.76,5.31-10.63,5.31S14.75,37.93,14.75,35V15.75C14.75,12.82,19.51,10.44,25.38,10.44 M25.38,9.44
			c-6.52,0-11.63,2.77-11.63,6.31V35c0,3.54,5.11,6.31,11.63,6.31S37,38.54,37,35v-6.97v-6.97v-5.31c0-1.93-1.53-3.72-4.2-4.9
			c-0.13-0.06-0.27-0.09-0.4-0.09c-0.15,0-0.3,0.03-0.43,0.1l-1.45,0.7l0.12-0.28c0.11-0.27,0.1-0.58-0.04-0.84
			c-0.14-0.26-0.38-0.45-0.67-0.52C28.47,9.6,26.94,9.44,25.38,9.44L25.38,9.44z"/>
	</g>
	<g>
		<path class="st11" d="M36,15.75c0,2.93-4.76,5.31-10.63,5.31s-10.63-2.38-10.63-5.31V35c0,2.93,4.76,5.31,10.63,5.31
			S36,37.93,36,35V15.75z"/>
		<line class="st11" x1="25.37" y1="21.06" x2="25.37" y2="28.03"/>
		<g>
			<path class="st1" d="M36.38,21.06L36,28.03l-0.38-6.97C35.6,20.55,36.4,20.54,36.38,21.06L36.38,21.06z"/>
		</g>
		<line class="st11" x1="30.69" y1="20.35" x2="30.69" y2="23.34"/>
		<line class="st11" x1="20.06" y1="20.35" x2="20.06" y2="32.73"/>
		<line class="st11" x1="33.34" y1="38.51" x2="33.34" y2="26.14"/>
		<line class="st11" x1="28.03" y1="40.14" x2="28.03" y2="28.03"/>
		<line class="st11" x1="22.72" y1="40.14" x2="22.72" y2="36.16"/>
		<line class="st11" x1="17.41" y1="38.51" x2="17.41" y2="27.22"/>
		<g>
			<path class="st11" d="M36,15.75c0-1.59-1.4-3.01-3.6-3.98l-3.81,1.82l1.12-2.69c-1.32-0.3-2.78-0.46-4.33-0.46
				c-5.87,0-10.63,2.38-10.63,5.31c0,2.93,4.76,5.31,10.63,5.31S36,18.68,36,15.75z"/>
		</g>
		<path class="st11" d="M33.35,15.75c0,0.66-2.83,2.66-7.97,2.66s-7.97-2-7.97-2.66c0-0.66,2.83-2.66,7.97-2.66"/>
		<path class="st11" d="M22.05,15.75c0-0.2,1.18-0.82,3.32-0.82s3.32,0.61,3.32,0.82s-1.18,0.82-3.32,0.82"/>
	</g>
</g>
</svg>
