<?xml version="1.0" encoding="utf-8"?>
<!-- Generator: Adobe Illustrator 28.0.0, SVG Export Plug-In . SVG Version: 6.00 Build 0)  -->
<svg version="1.1" id="Calque_1" xmlns="http://www.w3.org/2000/svg" xmlns:xlink="http://www.w3.org/1999/xlink" x="0px" y="0px"
	 viewBox="0 0 50.75 50.75" style="enable-background:new 0 0 50.75 50.75;" xml:space="preserve">
<style type="text/css">
	.st0{fill:#FF671D;}
	.st1{fill:#2D2926;}
	.st2{fill:#FF671D;stroke:#2D2926;stroke-width:0.75;stroke-linecap:round;stroke-linejoin:round;stroke-miterlimit:10;}
	.st3{fill:none;stroke:#2D2926;stroke-linecap:round;stroke-linejoin:round;stroke-miterlimit:10;}
	.st4{fill:#BEDE18;}
	.st5{fill:#BEDE18;stroke:#2D2926;stroke-width:0.75;stroke-linecap:round;stroke-linejoin:round;stroke-miterlimit:10;}
	.st6{fill:#F5D93F;stroke:#2D2926;stroke-linecap:round;stroke-linejoin:round;stroke-miterlimit:10;}
	.st7{fill:#F5D93F;stroke:#2D2926;stroke-width:0.5;stroke-linecap:round;stroke-linejoin:round;stroke-miterlimit:10;}
	.st8{fill:#19D3C5;}
	.st9{fill:#19D3C5;stroke:#2D2926;stroke-width:0.75;stroke-linecap:round;stroke-linejoin:round;stroke-miterlimit:10;}
	.st10{fill:#FF5A67;}
	.st11{fill:#FF5A67;stroke:#2D2926;stroke-width:0.75;stroke-linecap:round;stroke-linejoin:round;stroke-miterlimit:10;}
	.st12{fill:#F6A7D7;}
	.st13{fill:#F6A7D7;stroke:#2D2926;stroke-width:0.75;stroke-linecap:round;stroke-linejoin:round;stroke-miterlimit:10;}
	
		.st14{clip-path:url(#SVGID_00000155865761278367503300000015775164511068289703_);fill:#F6A7D7;stroke:#2D2926;stroke-width:0.75;stroke-linecap:round;stroke-linejoin:round;stroke-miterlimit:10;}
	.st15{fill:none;stroke:#2D2926;stroke-width:0.75;stroke-linecap:round;stroke-linejoin:round;stroke-miterlimit:10;}
</style>
<g>
	<g>
		<path class="st4" d="M24.45,40.81c-0.59,0-1.13-0.27-1.5-0.73s-0.49-1.06-0.35-1.63l0.41-1.31c-5.54-1.1-9.5-5.9-9.5-11.61
			c0-0.28,0.22-0.5,0.5-0.5c0.71,0,1.41,0.06,2.12,0.19c-0.93-1.71-1.36-3.63-1.23-5.6c0.01-0.13,0.07-0.26,0.17-0.34
			c0.09-0.08,0.21-0.12,0.33-0.12c0.01,0,0.02,0,0.03,0c0.59,0.04,1.2,0.13,1.8,0.28c-0.05-1.82,0.27-3.59,0.97-5.28
			c0.05-0.12,0.15-0.22,0.27-0.27c0.06-0.03,0.13-0.04,0.19-0.04s0.13,0.01,0.19,0.04c0.89,0.37,1.74,0.84,2.55,1.42
			c0.88-1.94,2.09-3.7,3.62-5.23c0.09-0.09,0.22-0.15,0.35-0.15l0,0c0.13,0,0.26,0.05,0.35,0.15c1.53,1.53,2.74,3.28,3.62,5.23
			c0.8-0.57,1.66-1.05,2.55-1.42c0.06-0.03,0.13-0.04,0.19-0.04s0.13,0.01,0.19,0.04c0.12,0.05,0.22,0.15,0.27,0.27
			c0.7,1.69,1.03,3.46,0.97,5.28c0.6-0.15,1.21-0.24,1.8-0.28c0.01,0,0.02,0,0.03,0c0.12,0,0.24,0.04,0.33,0.12
			c0.1,0.09,0.16,0.21,0.17,0.34c0.12,1.98-0.3,3.89-1.23,5.6c0.7-0.13,1.41-0.19,2.12-0.19c0.28,0,0.5,0.22,0.5,0.5
			c0,5.71-3.96,10.5-9.5,11.61l0.4,1.28c0.15,0.6,0.02,1.19-0.34,1.66s-0.91,0.73-1.5,0.73H24.45z"/>
		<path class="st1" d="M25.37,10.44c1.67,1.67,2.92,3.6,3.76,5.66c0.88-0.7,1.86-1.29,2.95-1.74c0.78,1.89,1.05,3.85,0.9,5.76
			c0.75-0.24,1.54-0.4,2.37-0.45c0.15,2.35-0.54,4.56-1.8,6.34c1.01-0.29,2.08-0.46,3.18-0.46c0,5.7-4.19,10.39-9.65,11.22
			l0.58,1.82c0.22,0.88-0.45,1.74-1.36,1.74h-1.84c-0.91,0-1.58-0.85-1.36-1.74l0.58-1.82c-5.47-0.82-9.65-5.52-9.65-11.22
			c1.11,0,2.17,0.17,3.18,0.46c-1.26-1.78-1.95-3.99-1.8-6.34c0.83,0.05,1.62,0.21,2.37,0.45c-0.16-1.9,0.11-3.87,0.9-5.76
			c1.09,0.45,2.07,1.05,2.95,1.74C22.45,14.04,23.7,12.11,25.37,10.44 M36.73,25.54L36.73,25.54 M25.37,9.44
			c-0.26,0-0.51,0.1-0.71,0.29c-1.43,1.43-2.59,3.05-3.46,4.84c-0.69-0.45-1.41-0.83-2.15-1.14c-0.12-0.05-0.25-0.08-0.38-0.08
			c-0.13,0-0.26,0.03-0.38,0.08c-0.24,0.1-0.44,0.3-0.54,0.54c-0.64,1.56-0.98,3.18-1.01,4.85c-0.42-0.08-0.85-0.13-1.27-0.16
			c-0.02,0-0.04,0-0.06,0c-0.24,0-0.48,0.09-0.66,0.25c-0.2,0.18-0.32,0.42-0.34,0.69c-0.11,1.72,0.2,3.44,0.88,5.01
			c-0.42-0.04-0.84-0.07-1.26-0.07c-0.55,0-1,0.45-1,1c0,5.76,3.87,10.63,9.36,11.98l-0.24,0.76c-0.01,0.02-0.01,0.04-0.02,0.06
			c-0.18,0.72-0.02,1.47,0.44,2.06s1.15,0.92,1.89,0.92h1.84c0.74,0,1.43-0.34,1.89-0.92c0.46-0.59,0.62-1.33,0.44-2.06
			c-0.01-0.02-0.01-0.04-0.02-0.06l-0.24-0.76c5.47-1.34,9.33-6.17,9.36-11.91c0-0.02,0-0.05,0-0.07c0-0.55-0.45-1-1-1h-0.01
			c-0.42,0-0.84,0.02-1.26,0.07c0.68-1.57,0.98-3.29,0.88-5.01c-0.03-0.53-0.47-0.94-1-0.94c-0.02,0-0.04,0-0.06,0
			c-0.42,0.03-0.84,0.08-1.27,0.16c-0.03-1.67-0.37-3.29-1.01-4.85c-0.16-0.39-0.53-0.62-0.92-0.62c-0.13,0-0.26,0.02-0.38,0.08
			c-0.74,0.31-1.46,0.69-2.15,1.14c-0.88-1.79-2.04-3.41-3.46-4.84C25.89,9.53,25.63,9.44,25.37,9.44L25.37,9.44z"/>
	</g>
	<g>
		<path class="st5" d="M26.3,40.31h-1.84c-0.91,0-1.58-0.85-1.36-1.74l2.28-7.21l2.28,7.21C27.87,39.46,27.21,40.31,26.3,40.31z"/>
		<path class="st5" d="M30.39,22.54c0-4.38-1.68-8.76-5.02-12.1c-3.34,3.34-5.02,7.72-5.02,12.1H30.39z"/>
		<path class="st5" d="M32.08,14.35c-3.16,1.31-5.49,3.77-6.71,6.7c-1.21-2.93-3.54-5.39-6.71-6.7c-2.62,6.33,0.38,13.57,6.71,16.19
			C31.7,27.92,34.7,20.68,32.08,14.35z"/>
		<path class="st5" d="M26.08,30.17c5.47-0.34,9.61-5.04,9.27-10.51c-2.73,0.17-5.13,1.43-6.81,3.33"/>
		<path class="st5" d="M24.67,30.17c-5.47-0.34-9.61-5.04-9.27-10.51c2.73,0.17,5.13,1.43,6.81,3.33"/>
		<path class="st5" d="M28.7,28.86c0-2.9-1.11-5.81-3.33-8.02c-2.22,2.22-3.33,5.12-3.33,8.02c-2.05-2.05-4.89-3.32-8.03-3.32
			c0,6.28,5.08,11.36,11.36,11.36s11.36-5.08,11.36-11.36C33.6,25.54,30.76,26.81,28.7,28.86z"/>
		<path class="st5" d="M28.74,33.14c0.76-1.85,1.13-3.82,1.13-5.79c0-3.93-1.5-7.86-4.5-10.86c-3,3-4.5,6.93-4.5,10.86
			c0,1.96,0.38,3.93,1.13,5.78"/>
	</g>
</g>
</svg>
