<?xml version="1.0" encoding="utf-8"?>
<!-- Generator: Adobe Illustrator 28.0.0, SVG Export Plug-In . SVG Version: 6.00 Build 0)  -->
<svg version="1.1" id="Calque_1" xmlns="http://www.w3.org/2000/svg" xmlns:xlink="http://www.w3.org/1999/xlink" x="0px" y="0px"
	 viewBox="0 0 50.75 50.75" style="enable-background:new 0 0 50.75 50.75;" xml:space="preserve">
<style type="text/css">
	.st0{fill:#FF671D;}
	.st1{fill:#2D2926;}
	.st2{fill:#FF671D;stroke:#2D2926;stroke-width:0.75;stroke-linecap:round;stroke-linejoin:round;stroke-miterlimit:10;}
	.st3{fill:none;stroke:#2D2926;stroke-linecap:round;stroke-linejoin:round;stroke-miterlimit:10;}
	.st4{fill:#BEDE18;}
	.st5{fill:#BEDE18;stroke:#2D2926;stroke-width:0.75;stroke-linecap:round;stroke-linejoin:round;stroke-miterlimit:10;}
	.st6{fill:#F5D93F;stroke:#2D2926;stroke-linecap:round;stroke-linejoin:round;stroke-miterlimit:10;}
	.st7{fill:#F5D93F;stroke:#2D2926;stroke-width:0.5;stroke-linecap:round;stroke-linejoin:round;stroke-miterlimit:10;}
	.st8{fill:#19D3C5;}
	.st9{fill:#19D3C5;stroke:#2D2926;stroke-width:0.75;stroke-linecap:round;stroke-linejoin:round;stroke-miterlimit:10;}
	.st10{fill:#FF5A67;}
	.st11{fill:#FF5A67;stroke:#2D2926;stroke-width:0.75;stroke-linecap:round;stroke-linejoin:round;stroke-miterlimit:10;}
	.st12{fill:#F6A7D7;}
	.st13{fill:#F6A7D7;stroke:#2D2926;stroke-width:0.75;stroke-linecap:round;stroke-linejoin:round;stroke-miterlimit:10;}
	
		.st14{clip-path:url(#SVGID_00000124137101991440257560000007147608133082670224_);fill:#F6A7D7;stroke:#2D2926;stroke-width:0.75;stroke-linecap:round;stroke-linejoin:round;stroke-miterlimit:10;}
	.st15{fill:none;stroke:#2D2926;stroke-width:0.75;stroke-linecap:round;stroke-linejoin:round;stroke-miterlimit:10;}
</style>
<g>
	<g>
		<path class="st4" d="M25.38,41.88c-5.1,0-9.25-4.15-9.25-9.25c0-0.28,0.22-0.5,0.5-0.5c5.1,0,9.25,4.15,9.25,9.25
			C25.88,41.66,25.65,41.88,25.38,41.88z"/>
		<path class="st1" d="M16.63,32.64c4.83,0,8.75,3.91,8.75,8.75C20.54,41.38,16.63,37.47,16.63,32.64 M16.63,31.64
			c-0.55,0-1,0.45-1,1c0,5.37,4.37,9.75,9.75,9.75c0.55,0,1-0.45,1-1C26.37,36.01,22,31.64,16.63,31.64L16.63,31.64z"/>
	</g>
	<g>
		
			<ellipse transform="matrix(0.7071 -0.7071 0.7071 0.7071 -17.4571 31.875)" class="st4" cx="29.75" cy="37.01" rx="6.71" ry="1.56"/>
		<path class="st1" d="M34.12,32.64L34.12,32.64 M34.12,32.64c0,4.83-3.91,8.75-8.75,8.75C25.37,36.55,29.29,32.64,34.12,32.64
			 M34.13,31.64L34.13,31.64c-5.38,0-9.75,4.37-9.75,9.75c0,0.55,0.45,1,1,1c5.35,0,9.7-4.33,9.75-9.67c0-0.02,0-0.05,0-0.07
			C35.12,32.09,34.68,31.64,34.13,31.64L34.13,31.64z M34.12,33.64L34.12,33.64L34.12,33.64L34.12,33.64z"/>
	</g>
	<path class="st5" d="M16.63,32.64c4.83,0,8.75,3.91,8.75,8.75C20.54,41.38,16.63,37.47,16.63,32.64z"/>
	<path class="st5" d="M34.12,32.64c-4.83,0-8.75,3.91-8.75,8.75C30.21,41.38,34.12,37.47,34.12,32.64z"/>
	<line class="st6" x1="25.38" y1="23.45" x2="25.38" y2="41.38"/>
	<g>
		<path class="st4" d="M24.63,17.28c-0.24,0-0.45-0.17-0.49-0.41l-0.98-5.34c-0.12-0.66,0.06-1.33,0.49-1.85
			c0.43-0.51,1.06-0.81,1.73-0.81s1.3,0.3,1.73,0.81c0.43,0.52,0.61,1.19,0.49,1.85l-0.98,5.34c-0.04,0.24-0.25,0.41-0.49,0.41
			H24.63z"/>
		<path class="st1" d="M25.38,9.37c1.09,0,1.92,0.99,1.72,2.07l-0.98,5.34h-1.49l-0.98-5.34C23.46,10.36,24.28,9.37,25.38,9.37
			 M25.38,8.37c-0.82,0-1.59,0.36-2.11,0.99c-0.52,0.63-0.74,1.45-0.59,2.26l0.98,5.34c0.09,0.48,0.5,0.82,0.98,0.82h1.49
			c0.48,0,0.9-0.34,0.98-0.82l0.98-5.34c0.15-0.81-0.07-1.63-0.59-2.26C26.97,8.73,26.2,8.37,25.38,8.37L25.38,8.37z"/>
	</g>
	<g>
		<path class="st4" d="M22.34,19.1c-0.08,0-0.16-0.02-0.24-0.06l-4.79-2.57c-0.59-0.32-1.01-0.87-1.14-1.53s0.03-1.33,0.45-1.86
			c0.43-0.54,1.07-0.85,1.76-0.85c0.65,0,1.27,0.28,1.7,0.77l3.57,4.1c0.16,0.18,0.16,0.45,0.01,0.64l-0.93,1.17
			C22.63,19.03,22.49,19.1,22.34,19.1z"/>
		<path class="st1" d="M18.38,12.73c0.49,0,0.97,0.2,1.32,0.6l3.57,4.1l-0.93,1.17l-4.79-2.57c-0.96-0.52-1.22-1.78-0.54-2.64
			C17.36,12.96,17.87,12.73,18.38,12.73 M18.38,11.73c-0.84,0-1.63,0.38-2.15,1.04c-0.51,0.64-0.71,1.47-0.54,2.27
			c0.16,0.8,0.67,1.48,1.4,1.87l4.79,2.57c0.15,0.08,0.31,0.12,0.47,0.12c0.3,0,0.59-0.13,0.78-0.38l0.93-1.17
			c0.3-0.38,0.29-0.92-0.03-1.28l-3.57-4.1C19.94,12.08,19.18,11.73,18.38,11.73L18.38,11.73z"/>
	</g>
	<g>
		<path class="st4" d="M16.65,24.31c-1.06,0-1.96-0.72-2.2-1.75c-0.15-0.65,0-1.33,0.41-1.87c0.41-0.53,1.02-0.85,1.69-0.88
			c0,0,5.44-0.24,5.45-0.24c0.23,0,0.44,0.16,0.49,0.39l0.33,1.46c0.05,0.24-0.07,0.48-0.29,0.57l-4.99,2.14
			C17.26,24.25,16.96,24.31,16.65,24.31z"/>
		<path class="st1" d="M22.01,20.07l0.33,1.46l-4.99,2.14c-0.23,0.1-0.46,0.14-0.69,0.14c-0.79,0-1.52-0.54-1.71-1.36
			c-0.24-1.07,0.54-2.09,1.63-2.14L22.01,20.07 M22.01,19.07c-0.01,0-0.03,0-0.04,0l-5.43,0.24c-0.82,0.04-1.57,0.43-2.07,1.08
			c-0.5,0.65-0.68,1.48-0.49,2.28c0.29,1.26,1.39,2.14,2.68,2.14c0.37,0,0.74-0.08,1.08-0.22l4.99-2.14
			c0.44-0.19,0.69-0.67,0.58-1.14l-0.33-1.46C22.88,19.39,22.47,19.07,22.01,19.07L22.01,19.07z"/>
	</g>
	<g>
		<path class="st4" d="M21.49,30.38c-0.34,0-0.67-0.08-0.98-0.22c-0.6-0.29-1.04-0.83-1.21-1.48c-0.16-0.65-0.03-1.33,0.36-1.88
			l3.2-4.39c0.1-0.13,0.25-0.21,0.4-0.21c0.07,0,0.15,0.02,0.22,0.05l1.34,0.65c0.22,0.1,0.33,0.35,0.27,0.58l-1.44,5.24
			C23.4,29.7,22.5,30.38,21.49,30.38z"/>
		<path class="st1" d="M23.28,22.7l1.34,0.65l-1.44,5.24c-0.22,0.79-0.93,1.29-1.69,1.29c-0.25,0-0.51-0.06-0.76-0.17
			c-0.99-0.47-1.3-1.73-0.66-2.61L23.28,22.7 M23.28,21.7c-0.31,0-0.62,0.15-0.81,0.41l-3.2,4.39c-0.48,0.66-0.64,1.5-0.45,2.29
			c0.2,0.79,0.74,1.45,1.48,1.81c0.38,0.18,0.78,0.27,1.19,0.27c1.24,0,2.33-0.83,2.66-2.02l1.44-5.24c0.13-0.47-0.1-0.96-0.53-1.17
			l-1.34-0.65C23.57,21.73,23.42,21.7,23.28,21.7L23.28,21.7z"/>
	</g>
	<g>
		<path class="st4" d="M29.26,30.38c-1.01,0-1.91-0.68-2.17-1.66l-1.44-5.24c-0.06-0.23,0.05-0.48,0.27-0.58l1.34-0.65
			c0.07-0.03,0.14-0.05,0.22-0.05c0.16,0,0.31,0.07,0.4,0.21l3.2,4.39c0.39,0.54,0.53,1.23,0.36,1.88c-0.16,0.65-0.6,1.19-1.21,1.48
			C29.92,30.3,29.6,30.38,29.26,30.38z"/>
		<path class="st1" d="M27.47,22.7l3.2,4.39c0.64,0.88,0.33,2.14-0.66,2.61c-0.25,0.12-0.51,0.17-0.76,0.17
			c-0.76,0-1.47-0.5-1.69-1.29l-1.44-5.24L27.47,22.7 M27.47,21.7c-0.15,0-0.29,0.03-0.43,0.1l-1.34,0.65
			c-0.43,0.21-0.66,0.7-0.53,1.17l1.44,5.24c0.33,1.19,1.42,2.03,2.66,2.03c0.41,0,0.82-0.09,1.19-0.27
			c0.74-0.36,1.28-1.01,1.48-1.81c0.2-0.79,0.04-1.63-0.44-2.29l-3.2-4.39C28.09,21.85,27.78,21.7,27.47,21.7L27.47,21.7z"/>
	</g>
	<g>
		<path class="st4" d="M34.1,24.31c-0.31,0-0.6-0.06-0.89-0.18l-4.99-2.14c-0.22-0.1-0.34-0.34-0.29-0.57l0.33-1.46
			c0.05-0.23,0.25-0.39,0.49-0.39c0.01,0,5.45,0.24,5.45,0.24c0.67,0.03,1.29,0.35,1.69,0.88c0.41,0.53,0.55,1.21,0.41,1.87
			C36.06,23.59,35.15,24.31,34.1,24.31z"/>
		<path class="st1" d="M28.74,20.07l5.43,0.24c1.09,0.05,1.88,1.07,1.63,2.14c-0.19,0.83-0.92,1.36-1.71,1.36
			c-0.23,0-0.46-0.05-0.69-0.14l-4.99-2.14L28.74,20.07 M28.74,19.07c-0.46,0-0.87,0.32-0.97,0.78l-0.33,1.46
			c-0.11,0.47,0.14,0.95,0.58,1.14l4.99,2.14c0.35,0.15,0.71,0.22,1.09,0.22c1.29,0,2.4-0.88,2.68-2.14c0.18-0.8,0-1.63-0.49-2.28
			c-0.5-0.65-1.25-1.05-2.07-1.08l-5.43-0.24C28.77,19.07,28.76,19.07,28.74,19.07L28.74,19.07z"/>
	</g>
	<g>
		<path class="st4" d="M28.41,19.1c-0.15,0-0.29-0.07-0.39-0.19l-0.93-1.17c-0.15-0.19-0.14-0.46,0.01-0.64l3.57-4.1
			c0.43-0.49,1.05-0.77,1.7-0.77c0.69,0,1.33,0.31,1.76,0.85c0.42,0.52,0.58,1.2,0.45,1.86c-0.14,0.66-0.55,1.22-1.14,1.53
			l-4.79,2.57C28.57,19.08,28.49,19.1,28.41,19.1z"/>
		<path class="st1" d="M32.37,12.74c0.51,0,1.02,0.22,1.37,0.66v0c0.68,0.86,0.42,2.12-0.54,2.64l-4.79,2.57l-0.93-1.17l3.57-4.1
			C31.4,12.94,31.88,12.74,32.37,12.74 M32.37,11.74L32.37,11.74c-0.8,0-1.55,0.34-2.07,0.94l-3.57,4.1
			c-0.32,0.36-0.33,0.9-0.03,1.28l0.93,1.17c0.2,0.24,0.49,0.38,0.78,0.38c0.16,0,0.32-0.04,0.47-0.12l4.79-2.57
			c0.72-0.39,1.23-1.07,1.4-1.87c0.16-0.8-0.03-1.63-0.54-2.27C34,12.11,33.21,11.74,32.37,11.74L32.37,11.74z"/>
	</g>
	<g>
		<path class="st4" d="M25.37,31.26c-0.67,0-1.3-0.3-1.73-0.81c-0.43-0.52-0.61-1.19-0.49-1.85l0.98-5.34
			c0.04-0.24,0.25-0.41,0.49-0.41h1.49c0.24,0,0.45,0.17,0.49,0.41l0.98,5.34c0.12,0.66-0.06,1.33-0.49,1.85
			C26.67,30.97,26.04,31.26,25.37,31.26z"/>
		<path class="st1" d="M26.12,23.35l0.98,5.34c0.2,1.08-0.63,2.07-1.72,2.07c-1.09,0-1.92-0.99-1.72-2.07l0.98-5.34H26.12
			 M26.12,22.35h-1.49c-0.48,0-0.9,0.34-0.98,0.82l-0.98,5.34c-0.15,0.81,0.07,1.63,0.59,2.26c0.52,0.63,1.3,0.99,2.11,0.99
			c0.82,0,1.59-0.36,2.11-0.99c0.52-0.63,0.74-1.45,0.59-2.26l-0.98-5.34C27.02,22.7,26.6,22.35,26.12,22.35L26.12,22.35z"/>
	</g>
	<g>
		<path class="st4" d="M32.37,27.89c-0.65,0-1.27-0.28-1.7-0.77l-3.57-4.1c-0.16-0.18-0.16-0.45-0.01-0.64l0.93-1.17
			c0.1-0.12,0.24-0.19,0.39-0.19c0.08,0,0.16,0.02,0.24,0.06l4.79,2.57c0.59,0.32,1.01,0.88,1.14,1.53
			c0.13,0.66-0.03,1.33-0.45,1.86C33.7,27.59,33.06,27.89,32.37,27.89z"/>
		<path class="st1" d="M28.41,21.53l4.79,2.57c0.96,0.52,1.22,1.78,0.54,2.64c-0.35,0.44-0.86,0.66-1.37,0.66
			c-0.49,0-0.97-0.2-1.32-0.6l-3.57-4.1L28.41,21.53 M28.41,20.53c-0.3,0-0.59,0.13-0.78,0.38l-0.93,1.17
			c-0.3,0.38-0.29,0.92,0.03,1.28l3.57,4.1c0.52,0.6,1.28,0.94,2.08,0.94c0.84,0,1.63-0.38,2.15-1.04c0.51-0.64,0.71-1.47,0.54-2.27
			c-0.16-0.8-0.67-1.48-1.39-1.87l-4.79-2.57C28.73,20.57,28.57,20.53,28.41,20.53L28.41,20.53z"/>
	</g>
	<g>
		<path class="st4" d="M28.74,20.56c-0.23,0-0.44-0.16-0.49-0.39l-0.33-1.46c-0.05-0.24,0.07-0.48,0.29-0.57l4.99-2.14
			c0.28-0.12,0.58-0.18,0.89-0.18c1.06,0,1.96,0.72,2.2,1.75c0.15,0.65,0,1.33-0.4,1.87s-1.02,0.86-1.69,0.88
			C34.19,20.33,28.75,20.56,28.74,20.56z"/>
		<path class="st1" d="M34.1,16.32c0.79,0,1.52,0.54,1.71,1.36c0.24,1.07-0.54,2.09-1.63,2.14l-5.43,0.24l-0.33-1.46l4.99-2.14
			C33.63,16.37,33.87,16.32,34.1,16.32 M34.1,15.32C34.1,15.32,34.1,15.32,34.1,15.32c-0.37,0-0.74,0.08-1.08,0.22l-4.99,2.14
			c-0.44,0.19-0.69,0.67-0.58,1.14l0.33,1.46c0.1,0.46,0.51,0.78,0.97,0.78c0.01,0,0.03,0,0.04,0l5.43-0.24
			c0.82-0.04,1.57-0.43,2.07-1.08c0.5-0.65,0.68-1.48,0.49-2.28C36.49,16.2,35.39,15.32,34.1,15.32L34.1,15.32z"/>
	</g>
	<g>
		<path class="st4" d="M27.47,17.93c-0.07,0-0.15-0.02-0.22-0.05l-1.34-0.65c-0.22-0.1-0.33-0.35-0.27-0.58l1.44-5.24
			c0.27-0.98,1.16-1.66,2.17-1.66c0.34,0,0.67,0.08,0.98,0.22c0.6,0.29,1.04,0.83,1.21,1.48c0.16,0.65,0.03,1.33-0.36,1.88
			l-3.2,4.39C27.78,17.86,27.63,17.93,27.47,17.93z"/>
		<path class="st1" d="M29.26,10.25c0.25,0,0.51,0.06,0.76,0.17c0.99,0.47,1.3,1.73,0.66,2.61l-3.2,4.39l-1.34-0.65l1.44-5.24
			C27.78,10.75,28.5,10.25,29.26,10.25 M29.26,9.25L29.26,9.25c-1.24,0-2.33,0.83-2.66,2.02l-1.44,5.24
			c-0.13,0.47,0.1,0.96,0.53,1.17l1.35,0.65c0.14,0.07,0.29,0.1,0.43,0.1c0.31,0,0.62-0.15,0.81-0.41l3.2-4.39
			c0.48-0.66,0.64-1.5,0.45-2.29c-0.2-0.79-0.74-1.45-1.48-1.81C30.07,9.34,29.67,9.25,29.26,9.25L29.26,9.25z"/>
	</g>
	<g>
		<path class="st4" d="M23.28,17.93c-0.16,0-0.31-0.07-0.4-0.21l-3.2-4.39c-0.39-0.54-0.53-1.23-0.36-1.88
			c0.16-0.65,0.6-1.19,1.21-1.48c0.31-0.15,0.64-0.22,0.98-0.22c1.01,0,1.91,0.68,2.17,1.66l1.44,5.24
			c0.06,0.23-0.05,0.48-0.27,0.58l-1.34,0.65C23.42,17.91,23.35,17.93,23.28,17.93z"/>
		<path class="st1" d="M21.49,10.25c0.76,0,1.47,0.5,1.69,1.29l1.44,5.24l-1.34,0.65l-3.2-4.39c-0.64-0.88-0.33-2.14,0.66-2.61
			C20.98,10.31,21.24,10.25,21.49,10.25 M21.49,9.25C21.49,9.25,21.49,9.25,21.49,9.25c-0.42,0-0.82,0.09-1.19,0.27
			c-0.74,0.36-1.28,1.01-1.48,1.81c-0.2,0.79-0.04,1.63,0.44,2.29l3.2,4.39c0.19,0.27,0.5,0.41,0.81,0.41c0.15,0,0.29-0.03,0.43-0.1
			l1.34-0.65c0.43-0.21,0.66-0.7,0.53-1.17l-1.44-5.24C23.82,10.08,22.73,9.25,21.49,9.25L21.49,9.25z"/>
	</g>
	<g>
		<path class="st4" d="M16.56,20.32c-0.67-0.03-1.29-0.35-1.69-0.88c-0.41-0.53-0.55-1.21-0.41-1.87c0.24-1.03,1.14-1.75,2.2-1.75
			c0.31,0,0.6,0.06,0.89,0.18l4.99,2.14c0.22,0.1,0.34,0.34,0.29,0.57l-0.33,1.46c-0.05,0.23-0.25,0.39-0.49,0.39
			C22,20.56,16.56,20.32,16.56,20.32z"/>
		<path class="st1" d="M16.66,16.32c0.23,0,0.46,0.05,0.69,0.14l4.99,2.14l-0.33,1.46l-5.43-0.24c-1.09-0.05-1.88-1.07-1.63-2.14v0
			C15.13,16.86,15.87,16.32,16.66,16.32 M16.66,15.32L16.66,15.32c-1.29,0-2.4,0.88-2.68,2.14c-0.18,0.8,0,1.63,0.49,2.28
			c0.5,0.65,1.25,1.05,2.07,1.08l5.43,0.24c0.01,0,0.03,0,0.04,0c0.46,0,0.87-0.32,0.97-0.78l0.33-1.46
			c0.11-0.47-0.14-0.95-0.58-1.14l-4.99-2.14C17.39,15.39,17.03,15.32,16.66,15.32L16.66,15.32z"/>
	</g>
	<g>
		<path class="st4" d="M18.38,27.89c-0.69,0-1.33-0.31-1.76-0.85c-0.42-0.52-0.58-1.2-0.45-1.86c0.14-0.66,0.55-1.21,1.14-1.53
			l4.79-2.57c0.08-0.04,0.16-0.06,0.24-0.06c0.15,0,0.29,0.07,0.39,0.19l0.93,1.17c0.15,0.19,0.14,0.46-0.01,0.64l-3.57,4.1
			C19.65,27.61,19.03,27.89,18.38,27.89z"/>
		<path class="st1" d="M22.34,21.53l0.93,1.17l-3.57,4.1c-0.35,0.4-0.84,0.6-1.32,0.6c-0.51,0-1.02-0.22-1.37-0.66
			c-0.68-0.86-0.42-2.12,0.54-2.64L22.34,21.53 M22.34,20.53c-0.16,0-0.32,0.04-0.47,0.12l-4.79,2.57c-0.72,0.39-1.23,1.07-1.4,1.87
			c-0.16,0.8,0.03,1.63,0.54,2.27c0.53,0.66,1.31,1.04,2.15,1.04c0.8,0,1.55-0.34,2.07-0.94l3.57-4.1c0.32-0.36,0.33-0.9,0.03-1.28
			l-0.93-1.17C22.93,20.66,22.64,20.53,22.34,20.53L22.34,20.53z"/>
	</g>
	<g>
		<path class="st4" d="M25.38,23.95c-2.14,0-3.88-1.74-3.88-3.88c0-2.14,1.74-3.88,3.88-3.88c2.14,0,3.88,1.74,3.88,3.88
			C29.26,22.2,27.52,23.95,25.38,23.95z"/>
		<path class="st1" d="M25.37,16.68c1.87,0,3.38,1.51,3.38,3.38s-1.51,3.38-3.38,3.38c-1.87,0-3.38-1.51-3.38-3.38
			S23.51,16.68,25.37,16.68 M25.37,15.68c-2.42,0-4.38,1.97-4.38,4.38s1.97,4.38,4.38,4.38s4.38-1.97,4.38-4.38
			S27.79,15.68,25.37,15.68L25.37,15.68z"/>
	</g>
	<path class="st5" d="M24.63,16.78l-0.98-5.34c-0.2-1.08,0.63-2.07,1.72-2.07h0c1.09,0,1.92,0.99,1.72,2.07l-0.98,5.34"/>
	<path class="st5" d="M22.34,18.6l-4.79-2.57c-0.96-0.52-1.22-1.78-0.54-2.64l0,0c0.68-0.86,1.97-0.88,2.69-0.06l3.57,4.1"/>
	<path class="st5" d="M22.34,21.52l-4.99,2.14c-1.01,0.43-2.16-0.15-2.4-1.22l0,0c-0.24-1.07,0.54-2.09,1.63-2.14l5.43-0.24"/>
	<path class="st5" d="M24.62,23.35l-1.44,5.24c-0.29,1.06-1.46,1.59-2.45,1.11l0,0c-0.99-0.47-1.3-1.73-0.66-2.61l3.2-4.39"/>
	<path class="st5" d="M27.47,22.7l3.2,4.39c0.64,0.88,0.33,2.14-0.66,2.61l0,0c-0.99,0.47-2.16-0.06-2.45-1.12l-1.44-5.24"/>
	<path class="st5" d="M28.74,20.07l5.43,0.24c1.09,0.05,1.88,1.07,1.63,2.14v0c-0.24,1.07-1.39,1.65-2.4,1.22l-4.99-2.14"/>
	<path class="st5" d="M27.48,17.43l3.57-4.1c0.72-0.82,2.01-0.8,2.69,0.06l0,0c0.68,0.86,0.42,2.12-0.54,2.64l-4.79,2.57"/>
	<path class="st5" d="M26.12,23.35l0.98,5.34c0.2,1.08-0.63,2.07-1.72,2.07h0c-1.09,0-1.92-0.99-1.72-2.07l0.98-5.34"/>
	<path class="st5" d="M28.41,21.53l4.79,2.57c0.96,0.52,1.22,1.78,0.54,2.64l0,0c-0.68,0.86-1.97,0.88-2.69,0.06l-3.57-4.1"/>
	<path class="st5" d="M28.41,18.61l4.99-2.14c1.01-0.43,2.16,0.15,2.4,1.22v0c0.24,1.07-0.54,2.09-1.63,2.14l-5.43,0.24"/>
	<path class="st5" d="M26.13,16.78l1.44-5.24c0.29-1.06,1.46-1.59,2.45-1.11l0,0c0.99,0.47,1.3,1.73,0.66,2.61l-3.2,4.39"/>
	<path class="st5" d="M23.28,17.43l-3.2-4.39c-0.64-0.88-0.33-2.14,0.66-2.61l0,0c0.99-0.47,2.16,0.06,2.45,1.12l1.44,5.24"/>
	<path class="st5" d="M22.01,20.06l-5.43-0.24c-1.09-0.05-1.88-1.07-1.63-2.14l0,0c0.24-1.07,1.39-1.65,2.4-1.22l4.99,2.14"/>
	<path class="st5" d="M23.27,22.7l-3.57,4.1c-0.72,0.82-2.01,0.8-2.69-0.06l0,0c-0.68-0.86-0.42-2.12,0.54-2.64l4.79-2.57"/>
	<circle class="st5" cx="25.38" cy="20.06" r="3.38"/>
</g>
</svg>
