<?xml version="1.0" encoding="utf-8"?>
<!-- Generator: Adobe Illustrator 28.0.0, SVG Export Plug-In . SVG Version: 6.00 Build 0)  -->
<svg version="1.1" id="Calque_1" xmlns="http://www.w3.org/2000/svg" xmlns:xlink="http://www.w3.org/1999/xlink" x="0px" y="0px"
	 viewBox="0 0 50.75 50.75" style="enable-background:new 0 0 50.75 50.75;" xml:space="preserve">
<style type="text/css">
	.st0{fill:#FF671D;}
	.st1{fill:#2D2926;}
	.st2{fill:#FF671D;stroke:#2D2926;stroke-width:0.75;stroke-linecap:round;stroke-linejoin:round;stroke-miterlimit:10;}
	.st3{fill:none;stroke:#2D2926;stroke-linecap:round;stroke-linejoin:round;stroke-miterlimit:10;}
	.st4{fill:#BEDE18;}
	.st5{fill:#BEDE18;stroke:#2D2926;stroke-width:0.75;stroke-linecap:round;stroke-linejoin:round;stroke-miterlimit:10;}
	.st6{fill:#F5D93F;stroke:#2D2926;stroke-linecap:round;stroke-linejoin:round;stroke-miterlimit:10;}
	.st7{fill:#F5D93F;stroke:#2D2926;stroke-width:0.5;stroke-linecap:round;stroke-linejoin:round;stroke-miterlimit:10;}
	.st8{fill:#19D3C5;}
	.st9{fill:#19D3C5;stroke:#2D2926;stroke-width:0.75;stroke-linecap:round;stroke-linejoin:round;stroke-miterlimit:10;}
	.st10{fill:#FF5A67;}
	.st11{fill:#FF5A67;stroke:#2D2926;stroke-width:0.75;stroke-linecap:round;stroke-linejoin:round;stroke-miterlimit:10;}
	.st12{fill:#F6A7D7;}
	.st13{fill:#F6A7D7;stroke:#2D2926;stroke-width:0.75;stroke-linecap:round;stroke-linejoin:round;stroke-miterlimit:10;}
	
		.st14{clip-path:url(#SVGID_00000145736899911133508600000004943213121549606532_);fill:#F6A7D7;stroke:#2D2926;stroke-width:0.75;stroke-linecap:round;stroke-linejoin:round;stroke-miterlimit:10;}
	.st15{fill:none;stroke:#2D2926;stroke-width:0.75;stroke-linecap:round;stroke-linejoin:round;stroke-miterlimit:10;}
</style>
<g>
	<g>
		<path class="st8" d="M25.38,41.81c-0.07,0-0.14-0.02-0.21-0.05l-9.65-4.47c-0.18-0.08-0.29-0.26-0.29-0.45V18.98
			c0-0.1,0.03-0.2,0.08-0.28l4.74-7.1V9.44c0-0.17,0.09-0.33,0.23-0.42c0.08-0.05,0.18-0.08,0.27-0.08c0.07,0,0.14,0.02,0.21,0.05
			l9.65,4.47c0.18,0.08,0.29,0.26,0.29,0.45v2.03l4.57,2.61c0.16,0.09,0.25,0.25,0.25,0.43v17.87c0,0.19-0.11,0.37-0.29,0.45
			l-9.65,4.47C25.52,41.8,25.45,41.81,25.38,41.81z"/>
		<path class="st1" d="M20.55,9.44l9.65,4.47v2.32l4.82,2.76v17.87l-9.65,4.47l-9.65-4.47V18.98l4.82-7.22V9.44 M20.55,8.44
			c-0.19,0-0.38,0.05-0.54,0.16c-0.29,0.18-0.46,0.5-0.46,0.84v2.02l-4.66,6.97c-0.11,0.16-0.17,0.36-0.17,0.56v17.87
			c0,0.39,0.23,0.74,0.58,0.91l9.65,4.47c0.13,0.06,0.28,0.09,0.42,0.09s0.29-0.03,0.42-0.09l9.65-4.47
			c0.35-0.16,0.58-0.52,0.58-0.91V18.98c0-0.36-0.19-0.69-0.5-0.87l-4.32-2.47V13.9c0-0.39-0.23-0.74-0.58-0.91l-9.65-4.47
			C20.84,8.47,20.69,8.44,20.55,8.44L20.55,8.44z"/>
	</g>
	<g>
		<polygon class="st9" points="15.73,18.98 15.73,36.85 25.37,41.31 35.02,36.85 35.02,18.98 25.37,23.45 		"/>
		<polygon class="st9" points="30.2,13.9 20.55,9.44 20.55,11.76 30.2,16.22 		"/>
		<line class="st9" x1="25.37" y1="41.31" x2="25.37" y2="23.45"/>
		<polygon class="st9" points="35.02,18.98 30.2,16.22 25.37,23.45 		"/>
		<line class="st9" x1="20.55" y1="11.76" x2="30.2" y2="16.22"/>
	</g>
	<polygon class="st9" points="25.37,23.45 30.2,16.22 20.55,11.76 15.73,18.98 	"/>
</g>
</svg>
